<svg viewBox="340 150 1390 1830" xmlns="http://www.w3.org/2000/svg" aria-hidden="true">
<path fill="#fff" d="M1537.134,1256.749c-28.265,12.276-62.522,20.378-103.717,20.378c-98.958,0-157.873-46.708-189.852-85.89c-18.365-22.479-32.663-48.125-42.505-76.214c-8.757-24.962-13.38-50.451-13.38-73.712c0-62.082,17.807-124.916,51.507-181.711c13.615-22.958,27.738-47.128,41.724-71.885c-89.272-173.335-165.604-350.364-190.8-493.811c-43.629,248.445-240.665,597.626-392.654,853.831c-66.069,111.37-110.93,244.692-110.93,390.181c0,174.556,137.896,480.108,503.584,480.108s503.584-305.552,503.584-480.108C1593.694,1437.297,1572.231,1342.493,1537.134,1256.749z M751.21,1734.394c-60.958-95.214-87.493-228.849-53.344-337.922c4.74,96.807,31.041,192.393,78.707,276.681c52.279,91.197,136.821,161.421,230.872,208.256c26.887,13.497,54.283,24.58,82.665,35.204C955.712,1921.422,824.433,1846.478,751.21,1734.394z"/>
<path fill="#fff" d="M956.806,592.128c-15.631,35.564-32.926,72.682-51.874,111.322c-34.042,69.453-71.073,139.18-107.874,205.656c-9.709,1.149-19.867,1.762-30.474,1.762c-154.603,0-212.902-129.175-212.902-202.974c0-61.506,18.97-117.868,46.904-164.947c64.254-108.323,147.554-255.942,165.998-360.97c18.444,105.028,101.744,252.647,165.998,360.97C941.744,558.392,949.942,574.833,956.806,592.128z"/>
<path fill="#fff" d="M1646.318,1041.311c0,73.797-58.299,202.973-212.899,202.973s-212.899-129.176-212.899-202.973c0-61.506,18.969-117.871,46.901-164.957c64.255-108.315,147.552-255.936,165.998-360.97c18.446,105.034,101.743,252.655,165.998,360.97C1627.349,923.441,1646.318,979.805,1646.318,1041.311z"/>
</svg>
